- 
http://www.Speed.Cd      fast  and The Hottest Private Tracker on the net

   signup is open now

Please Seed back to make the speed Faster!!!

------------------nfo--------------------------
-[img]http://www.moviespack.com/wp-content/uploads/2011/10/the-pee-wee-herman-show-on-broadway-203x300.jpg[/img]
[img]http://img855.imageshack.us/img855/4060/tpwhsbrrogavisnapshot00.png[/img]
[img]http://img404.imageshack.us/img404/4060/tpwhsbrrogavisnapshot00.png[/img]
[img]http://img41.imageshack.us/img41/4060/tpwhsbrrogavisnapshot00.png[/img]
[img]http://img191.imageshack.us/img191/3223/tpwhsbrrogavisnapshot01.png[/img] 
http://www.imdb.com/title/tt1839648/
Complete name                            : C:\Users\root\Desktop\The.Pee-wee.Herman.Show.on.Broadway.2011.BRRip.Ac3.Xvid.ANALOG\T.P.W.H.S.BRR.ANALOG.avi
Format                                   : AVI
Format/Info                              : Audio Video Interleave
File size                                : 1.45 GiB
Duration                                 : 1h 28mn
Overall bit rate                         : 2 331 Kbps
Movie name                               : T.P.W.H.S.BRR.ANALOG
Writing application                      : VirtualDub build 32842/release
Copyright                                : ANALOG
Encoded by                               : Cooperman

Video
ID                                       : 0
Format                                   : MPEG-4 Visual
Format profile                           : Advanced Simple@L5
Format settings, BVOP                    : 1
Format settings, QPel                    : Yes
Format settings, GMC                     : No warppoints
Format settings, Matrix                  : Default (H.263)
Muxing mode                              : Packed bitstream
Codec ID                                 : XVID
Codec ID/Hint                            : XviD
Duration                                 : 1h 28mn
Bit rate                                 : 1 935 Kbps
Width                                    : 720 pixels
Height                                   : 404 pixels
Display aspect ratio                     : 16:9
Frame rate                               : 29.970 fps
Color space                              : YUV
Chroma subsampling                       : 4:2:0
Bit depth                                : 8 bits
Scan type                                : Progressive
Compression mode                         : Lossy
Bits/(Pixel*Frame)                       : 0.222
Stream size                              : 1.20 GiB (83%)
Writing library                          : XviD 1.2.1 (UTC 2008-12-04)

Audio
ID                                       : 1
Format                                   : AC-3
Format/Info                              : Audio Coding 3
Mode extension                           : CM (complete main)
Codec ID                                 : 2000
Duration                                 : 1h 28mn
Bit rate mode                            : Constant
Bit rate                                 : 384 Kbps
Channel(s)                               : 2 channels
Channel positions                        : Front: L R
Sampling rate                            : 48.0 KHz
Bit depth                                : 16 bits
Compression mode                         : Lossy
Stream size                              : 244 MiB (16%)
Alignment                                : Aligned on interleaves
Interleave, duration                     : 33 ms (1.00 video frame)
Interleave, preload duration             : 512 ms
Language                                 : English
Sample                                   : Yes! check it!! thats what its for!!
Source file                              : The.Pee-wee.Herman.Show.on.Broadway.2011.1080p.BluRay.x264-aAF  THANX aAF :)
As humans, we perceive the world in analog. Everything we see and hear is a continuous transmission of information to our senses.ANALOG.P.2.P@HUSHMAIL.COM
GREATINGS TO ALL THE P2P PLACES I LURK AT!!